<svg width="180" height="25" viewBox="0 0 180 25" fill="none" xmlns="http://www.w3.org/2000/svg">
<path d="M4.9878 14.9633H0V19.9511H4.9878V14.9633Z" fill="#F9F9F9"/>
<path d="M12.4699 24.9389C15.2572 24.9389 17.4577 22.7383 17.4577 19.951H4.98828V24.9389H12.4699Z" fill="#F9F9F9"/>
<path d="M9.97608 9.97559C7.18878 9.97559 4.98828 12.176 4.98828 14.9633H24.9394C27.7267 14.9633 29.9272 12.7628 29.9272 9.97559H24.9394H9.97608Z" fill="#F9F9F9"/>
<path d="M22.4448 0C19.6575 0 17.457 2.2005 17.457 4.9878H29.9265V0H22.4448Z" fill="#F9F9F9"/>
<path d="M34.9136 4.98779H29.9258V9.97549H34.9136V4.98779Z" fill="#F9F9F9"/>
<path d="M54.8652 18.044V6.8949H66.7479V9.3888H57.9459V11.1491H65.2809V13.643H57.9459V15.5501H66.7479V18.044H54.8652Z" fill="#F9F9F9"/>
<path d="M54.8652 18.044V6.8949H66.7479V9.3888H57.9459V11.1491H65.2809V13.643H57.9459V15.5501H66.7479V18.044H54.8652Z" fill="#F9F9F9"/>
<path d="M70.2695 18.044V6.8949H73.3502V15.4034H80.685V18.044H70.2695Z" fill="#F9F9F9"/>
<path d="M70.2695 18.044V6.8949H73.3502V15.4034H80.685V18.044H70.2695Z" fill="#F9F9F9"/>
<path d="M84.938 16.7236C83.618 15.6967 83.031 14.2297 83.031 12.4693C83.031 10.709 83.618 9.24204 84.938 8.21514C86.259 7.18824 88.019 6.60144 90.22 6.60144C92.42 6.60144 94.18 7.18824 95.501 8.21514C96.821 9.24204 97.408 10.709 97.408 12.4693C97.408 14.2297 96.821 15.6967 95.501 16.7236C94.18 17.7505 92.42 18.3373 90.22 18.3373C88.019 18.3373 86.259 17.7505 84.938 16.7236ZM93.153 14.9632C93.887 14.3764 94.18 13.4962 94.18 12.4693C94.18 11.4424 93.887 10.709 93.153 10.1222C92.42 9.53544 91.393 9.24204 90.22 9.24204C89.046 9.24204 88.019 9.53544 87.286 10.1222C86.552 10.709 86.259 11.5891 86.259 12.4693C86.259 13.3495 86.552 14.2297 87.286 14.9632C88.019 15.55 89.046 15.8434 90.22 15.8434C91.393 15.8434 92.42 15.55 93.153 14.9632Z" fill="#F9F9F9"/>
<path d="M84.938 16.7236C83.618 15.6967 83.031 14.2297 83.031 12.4693C83.031 10.709 83.618 9.24204 84.938 8.21514C86.259 7.18824 88.019 6.60144 90.22 6.60144C92.42 6.60144 94.18 7.18824 95.501 8.21514C96.821 9.24204 97.408 10.709 97.408 12.4693C97.408 14.2297 96.821 15.6967 95.501 16.7236C94.18 17.7505 92.42 18.3373 90.22 18.3373C88.019 18.3373 86.259 17.7505 84.938 16.7236ZM93.153 14.9632C93.887 14.3764 94.18 13.4962 94.18 12.4693C94.18 11.4424 93.887 10.709 93.153 10.1222C92.42 9.53544 91.393 9.24204 90.22 9.24204C89.046 9.24204 88.019 9.53544 87.286 10.1222C86.552 10.709 86.259 11.5891 86.259 12.4693C86.259 13.3495 86.552 14.2297 87.286 14.9632C88.019 15.55 89.046 15.8434 90.22 15.8434C91.393 15.8434 92.42 15.55 93.153 14.9632Z" fill="#F9F9F9"/>
<path d="M101.956 16.7236C100.782 15.6967 100.195 14.2297 100.195 12.4693C100.195 10.709 100.782 9.24204 102.102 8.21514C103.423 7.18824 105.183 6.60144 107.237 6.60144C110.024 6.60144 112.225 7.62834 113.398 9.38874L111.198 10.8556C110.171 9.68214 108.851 8.94864 107.237 8.94864C106.063 8.94864 105.036 9.24204 104.303 9.82884C103.569 10.4156 103.276 11.2957 103.276 12.1759C103.276 14.2297 104.743 15.55 107.237 15.55C108.557 15.55 110.024 14.9632 110.904 13.9363H107.677V11.8825H113.985V18.0439H111.491V16.5769C110.464 17.7505 108.997 18.3373 106.943 18.3373C104.89 18.3373 103.129 17.7505 101.956 16.7236Z" fill="#F9F9F9"/>
<path d="M101.956 16.7236C100.782 15.6967 100.195 14.2297 100.195 12.4693C100.195 10.709 100.782 9.24204 102.102 8.21514C103.423 7.18824 105.183 6.60144 107.237 6.60144C110.024 6.60144 112.225 7.62834 113.398 9.38874L111.198 10.8556C110.171 9.68214 108.851 8.94864 107.237 8.94864C106.063 8.94864 105.036 9.24204 104.303 9.82884C103.569 10.4156 103.276 11.2957 103.276 12.1759C103.276 14.2297 104.743 15.55 107.237 15.55C108.557 15.55 110.024 14.9632 110.904 13.9363H107.677V11.8825H113.985V18.0439H111.491V16.5769C110.464 17.7505 108.997 18.3373 106.943 18.3373C104.89 18.3373 103.129 17.7505 101.956 16.7236Z" fill="#F9F9F9"/>
<path d="M117.506 18.044V6.8949H126.308C127.481 6.8949 128.508 7.1883 129.242 7.9218C129.975 8.6553 130.415 9.5355 130.415 10.5623C130.415 11.5892 130.122 12.4694 129.242 13.0562C128.508 13.643 127.628 14.0831 126.455 14.0831L130.709 18.044H126.455L122.64 14.0831H120.44V18.044H117.506ZM120.587 9.3888V11.7359H125.574C126.601 11.7359 127.188 11.2958 127.188 10.5623C127.188 9.8289 126.601 9.3888 125.574 9.3888H120.587Z" fill="#F9F9F9"/>
<path d="M117.506 18.044V6.8949H126.308C127.481 6.8949 128.508 7.1883 129.242 7.9218C129.975 8.6553 130.415 9.5355 130.415 10.5623C130.415 11.5892 130.122 12.4694 129.242 13.0562C128.508 13.643 127.628 14.0831 126.455 14.0831L130.709 18.044H126.455L122.64 14.0831H120.44V18.044H117.506ZM120.587 9.3888V11.7359H125.574C126.601 11.7359 127.188 11.2958 127.188 10.5623C127.188 9.8289 126.601 9.3888 125.574 9.3888H120.587Z" fill="#F9F9F9"/>
<path d="M134.964 16.7236C133.643 15.6967 133.057 14.2297 133.057 12.4693C133.057 10.709 133.643 9.24204 134.964 8.21514C136.284 7.18824 138.044 6.60144 140.245 6.60144C142.445 6.60144 144.206 7.18824 145.526 8.21514C146.846 9.24204 147.433 10.709 147.433 12.4693C147.433 14.2297 146.846 15.6967 145.526 16.7236C144.206 17.7505 142.445 18.3373 140.245 18.3373C138.044 18.3373 136.284 17.7505 134.964 16.7236ZM143.179 14.9632C143.912 14.3764 144.206 13.4962 144.206 12.4693C144.206 11.4424 143.912 10.709 143.179 10.1222C142.445 9.53544 141.418 9.24204 140.245 9.24204C139.071 9.24204 138.044 9.53544 137.311 10.1222C136.577 10.709 136.284 11.5891 136.284 12.4693C136.284 13.3495 136.577 14.2297 137.311 14.9632C138.044 15.55 139.071 15.8434 140.245 15.8434C141.418 15.8434 142.445 15.55 143.179 14.9632Z" fill="#F9F9F9"/>
<path d="M134.964 16.7236C133.643 15.6967 133.057 14.2297 133.057 12.4693C133.057 10.709 133.643 9.24204 134.964 8.21514C136.284 7.18824 138.044 6.60144 140.245 6.60144C142.445 6.60144 144.206 7.18824 145.526 8.21514C146.846 9.24204 147.433 10.709 147.433 12.4693C147.433 14.2297 146.846 15.6967 145.526 16.7236C144.206 17.7505 142.445 18.3373 140.245 18.3373C138.044 18.3373 136.284 17.7505 134.964 16.7236ZM143.179 14.9632C143.912 14.3764 144.206 13.4962 144.206 12.4693C144.206 11.4424 143.912 10.709 143.179 10.1222C142.445 9.53544 141.418 9.24204 140.245 9.24204C139.071 9.24204 138.044 9.53544 137.311 10.1222C136.577 10.709 136.284 11.5891 136.284 12.4693C136.284 13.3495 136.577 14.2297 137.311 14.9632C138.044 15.55 139.071 15.8434 140.245 15.8434C141.418 15.8434 142.445 15.55 143.179 14.9632Z" fill="#F9F9F9"/>
<path d="M163.423 6.8949V13.2029C163.423 16.577 161.223 18.3374 156.968 18.3374C152.714 18.3374 150.514 16.577 150.514 13.2029V6.8949H153.594V12.9095C153.594 14.8166 154.768 15.8435 156.968 15.8435C159.169 15.8435 160.343 14.8166 160.343 12.9095V6.8949H163.423Z" fill="#F9F9F9"/>
<path d="M163.423 6.8949V13.2029C163.423 16.577 161.223 18.3374 156.968 18.3374C152.714 18.3374 150.514 16.577 150.514 13.2029V6.8949H153.594V12.9095C153.594 14.8166 154.768 15.8435 156.968 15.8435C159.169 15.8435 160.343 14.8166 160.343 12.9095V6.8949H163.423Z" fill="#F9F9F9"/>
<path d="M170.171 14.8166V18.044H167.09V6.8949H175.452C178.239 6.8949 179.999 8.3619 179.999 10.8557C179.999 12.0293 179.559 13.0562 178.826 13.7897C178.092 14.5232 176.919 14.8166 175.598 14.8166H170.171ZM170.171 9.3888V12.3227H174.865C176.185 12.3227 176.772 11.7359 176.772 10.8557C176.772 9.9756 176.038 9.3888 174.865 9.3888H170.171Z" fill="#F9F9F9"/>
<path d="M170.171 14.8166V18.044H167.09V6.8949H175.452C178.239 6.8949 179.999 8.3619 179.999 10.8557C179.999 12.0293 179.559 13.0562 178.826 13.7897C178.092 14.5232 176.919 14.8166 175.598 14.8166H170.171ZM170.171 9.3888V12.3227H174.865C176.185 12.3227 176.772 11.7359 176.772 10.8557C176.772 9.9756 176.038 9.3888 174.865 9.3888H170.171Z" fill="#F9F9F9"/>
</svg>
